<svg width="290" height="289" fill="none" xmlns="http://www.w3.org/2000/svg"><path d="m228.542 108.159-6.511 3.722c.02.037.042.073.063.109l6.448-3.831Zm-15.638-9.287.122-7.5h-.122v7.5Zm-117.74 0-7.27 1.848a7.5 7.5 0 0 0 7.27 5.652v-7.5Zm-5.335-20.99 7.269-1.847a10.571 10.571 0 0 0-.022-.08l-7.247 1.928ZM80.63 71.01v7.5c.087 0 .173-.002.26-.005l-.26-7.495Zm-18.397 0v-7.5 7.5Zm-9.198 9.287h-7.5 7.5Zm20.604 9.288 7.248-1.931a7.5 7.5 0 0 0-7.248-5.57v7.5Zm25.388 95.287 7.248-1.928-.001-.003-7.247 1.931Zm9.199 6.873v-7.5c-.087 0-.173.001-.26.004l.26 7.496Zm82.786 0v7.5h.023l-.023-7.5Zm8.187-5.108 6.71 3.349.011-.021-6.721-3.328Zm30.171-60.925 6.721 3.329.06-.125-6.781-3.204Zm5.683-21.275a25.989 25.989 0 0 0-9.287-9.451l-7.66 12.896a10.995 10.995 0 0 1 3.925 3.999l13.022-7.444Zm-9.287-9.451a25.767 25.767 0 0 0-12.74-3.613l-.244 14.998c1.87.03 3.704.549 5.324 1.511l7.66-12.896Zm-12.862-3.614H95.164v15h117.74v-15Zm-110.471 5.652-5.336-20.989L82.56 79.73l5.335 20.99 14.538-3.696Zm-5.357-21.07a16.79 16.79 0 0 0-6.17-9.136l-8.978 12.017c.31.23.545.572.653.976l14.495-3.857Zm-6.17-9.136a16.637 16.637 0 0 0-10.535-3.303l.518 14.99c.365-.012.73.1 1.039.33l8.978-12.017ZM80.63 63.51H62.233v15H80.63v-15Zm-18.397 0A16.654 16.654 0 0 0 50.4 68.452l10.658 10.556a1.654 1.654 0 0 1 1.175-.498v-15ZM50.4 68.452a16.833 16.833 0 0 0-4.865 11.845h15c0-.497.196-.96.523-1.29L50.4 68.453Zm-4.865 11.845c0 4.43 1.742 8.692 4.865 11.845l10.658-10.555a1.833 1.833 0 0 1-.523-1.29h-15ZM50.4 92.142a16.654 16.654 0 0 0 11.833 4.943v-15c-.427 0-.851-.171-1.175-.498L50.4 92.142Zm11.833 4.943H73.64v-15H62.233v15Zm4.16-5.57 25.387 95.288 14.494-3.862-25.388-95.287-14.494 3.862Zm25.386 95.286a16.791 16.791 0 0 0 6.171 9.136l8.978-12.017a1.795 1.795 0 0 1-.653-.976l-14.496 3.857Zm6.171 9.136a16.637 16.637 0 0 0 10.535 3.303l-.519-14.991a1.636 1.636 0 0 1-1.038-.329l-8.978 12.017Zm10.276 3.308h82.786v-15h-82.786v15Zm82.809 0a16.635 16.635 0 0 0 8.755-2.524l-7.94-12.726a1.636 1.636 0 0 1-.861.25l.046 15Zm8.755-2.524a16.756 16.756 0 0 0 6.119-6.735l-13.421-6.698c-.15.3-.374.542-.638.707l7.94 12.726Zm6.13-6.756 30.171-60.924-13.442-6.657-30.171 60.925 13.442 6.656Zm30.231-61.049a26.217 26.217 0 0 0 2.482-12.439l-14.983.707a11.229 11.229 0 0 1-1.061 5.324l13.562 6.408Zm2.482-12.439a26.208 26.208 0 0 0-3.643-12.149l-12.896 7.662a11.21 11.21 0 0 1 1.556 5.194l14.983-.707Z" fill="#fff"/><path d="M125.772 224.25c0 3.62-2.887 6.431-6.297 6.431-3.411 0-6.298-2.811-6.298-6.431s2.887-6.431 6.298-6.431c3.41 0 6.297 2.811 6.297 6.431ZM185.61 224.25c0 3.62-2.888 6.431-6.298 6.431s-6.298-2.811-6.298-6.431 2.888-6.431 6.298-6.431 6.298 2.811 6.298 6.431Z" fill="#fff" stroke="#fff" stroke-width="15"/><path d="m133.806 142.237 31.223-26.558-12.232 24.948 13.858 5.52-31.223 26.557 12.231-24.947-13.857-5.52Z" fill="#fff" stroke="#fff" stroke-width="4.889" stroke-linejoin="round"/></svg>