<?xml version="1.0" encoding="UTF-8" standalone="no" ?>
<!DOCTYPE svg PUBLIC "-//W3C//DTD SVG 1.1//EN" "http://www.w3.org/Graphics/SVG/1.1/DTD/svg11.dtd">
<svg xmlns="http://www.w3.org/2000/svg" xmlns:xlink="http://www.w3.org/1999/xlink" version="1.1" width="1080" height="1080" viewBox="0 0 1080 1080" xml:space="preserve">
<desc>Created with Fabric.js 5.2.4</desc>
<defs>
</defs>
<g transform="matrix(1 0 0 1 540 540)" id="b36add3f-6034-496c-a951-f8cad35d34a1"  >
<rect style="stroke: none; stroke-width: 1; stroke-dasharray: none; stroke-linecap: butt; stroke-dashoffset: 0; stroke-linejoin: miter; stroke-miterlimit: 4; fill: rgb(255,255,255); fill-rule: nonzero; opacity: 1; visibility: hidden;" vector-effect="non-scaling-stroke"  x="-540" y="-540" rx="0" ry="0" width="1080" height="1080" />
</g>
<g transform="matrix(1 0 0 1 540 540)" id="1b2bc4c5-2a78-413a-9911-61cd3b7de725"  >
</g>
<g transform="matrix(0.57 0 0 0.57 540 540)"  >
<g style=""   >
		<g transform="matrix(1 0 0 1 -752.03 -37.56)"  >
<path style="stroke: none; stroke-width: 1; stroke-dasharray: none; stroke-linecap: butt; stroke-dashoffset: 0; stroke-linejoin: miter; stroke-miterlimit: 4; fill: rgb(51,149,255); fill-rule: nonzero; opacity: 1;" vector-effect="non-scaling-stroke"  transform=" translate(-195.97, -162.94)" d="M 122.63 105.7 L 106.88 163.67000000000002 L 197.03 105.37000000000002 L 138.07 325.35 L 197.95 325.40000000000003 L 285.05 0.48" stroke-linecap="round" />
</g>
		<g transform="matrix(1 0 0 1 0.17 38.58)"  >
<path style="stroke: none; stroke-width: 1; stroke-dasharray: none; stroke-linecap: butt; stroke-dashoffset: 0; stroke-linejoin: miter; stroke-miterlimit: 4; fill: rgb(255,255,255); fill-rule: nonzero; opacity: 1;" vector-effect="non-scaling-stroke"  transform=" translate(-948.17, -239.08)" d="M 25.6 232.92 L 0.8 325.4 L 123.53 325.4 L 173.75 137.26999999999998 L 25.6 232.92 M 451.92 151.5 C 448.92 162.65 443.14000000000004 170.84 434.52000000000004 176.07 C 425.92 181.29 413.85 183.91 398.27000000000004 183.91 L 348.77000000000004 183.91 L 366.15000000000003 119.11 L 415.65000000000003 119.11 C 431.21000000000004 119.11 441.90000000000003 121.71 447.70000000000005 127.01 C 453.50000000000006 132.31 454.90000000000003 140.41 451.9200000000001 151.61 M 503.1700000000001 150.21 C 509.4700000000001 126.81 506.87000000000006 108.81 495.3500000000001 96.21000000000001 C 483.8500000000001 83.71000000000001 463.6700000000001 77.41000000000001 434.87000000000006 77.41000000000001 L 324.4 77.41000000000001 L 257.9 325.51 L 311.57 325.51 L 338.37 225.51 L 373.57 225.51 C 381.46999999999997 225.51 387.69 226.81 392.23 229.31 C 396.78000000000003 231.91 399.45000000000005 236.41 400.27000000000004 242.91 L 409.85 325.51 L 467.35 325.51 L 458.03000000000003 248.51 C 456.13000000000005 231.31 448.26000000000005 221.20999999999998 434.43 218.20999999999998 C 452.06 213.10999999999999 466.83 204.60999999999999 478.73 192.80999999999997 C 490.54702177445176 181.09637071220658 498.98959648592836 166.41513400035072 503.17 150.30999999999995 M 633.63 236.70999999999998 C 629.13 253.51 622.23 266.21 612.9 275.10999999999996 C 603.56 284.00999999999993 592.4 288.40999999999997 579.38 288.40999999999997 C 566.12 288.40999999999997 557.13 284.10999999999996 552.38 275.40999999999997 C 547.62 266.71 547.46 254.10999999999996 551.88 237.60999999999996 C 556.3 221.10999999999996 563.35 208.20999999999995 573.05 198.90999999999997 C 582.75 189.60999999999996 594.0899999999999 184.95999999999998 607.1099999999999 184.95999999999998 C 620.1099999999999 184.95999999999998 629.0099999999999 189.45999999999998 633.5099999999999 198.39 C 638.1099999999999 207.35999999999999 638.2099999999999 220.19 633.7099999999999 236.89 z M 657.15 148.90999999999997 L 650.43 174.00999999999996 C 647.53 165.00999999999996 641.9 157.80999999999997 633.5799999999999 152.40999999999997 C 625.2399999999999 147.10999999999996 614.92 144.40999999999997 602.6099999999999 144.40999999999997 C 587.5099999999999 144.40999999999997 573.0099999999999 148.30999999999997 559.1099999999999 156.10999999999996 C 545.2099999999999 163.90999999999997 533.0099999999999 174.90999999999997 522.6099999999999 189.10999999999996 C 512.2099999999999 203.30999999999995 504.6099999999999 219.40999999999997 499.7099999999999 237.50999999999996 C 494.9099999999999 255.70999999999995 493.9099999999999 271.60999999999996 496.80999999999995 285.40999999999997 C 499.80999999999995 299.30999999999995 506.10999999999996 309.90999999999997 515.81 317.30999999999995 C 525.6099999999999 324.80999999999995 538.1099999999999 328.50999999999993 553.41 328.50999999999993 C 565.5677062665243 328.57158883532645 577.5884046489889 325.94206106416226 588.61 320.80999999999995 C 599.5070291832706 315.89493259932283 609.1994310325407 308.6597593878958 617.01 299.60999999999996 L 610.01 325.77 L 661.91 325.77 L 709.3 149 L 657.3 149 z M 895.8 148.90999999999997 L 744.87 148.90999999999997 L 734.32 188.30999999999997 L 822.1400000000001 188.30999999999997 L 706.0400000000001 288.60999999999996 L 696.1200000000001 325.60999999999996 L 851.9200000000001 325.60999999999996 L 862.47 286.21 L 768.37 286.21 L 886.25 184.40999999999997 M 1028.65 236.40999999999997 C 1023.9800000000001 253.80999999999997 1017.0500000000001 266.89 1007.9000000000001 275.40999999999997 C 998.7500000000001 284.01 987.6700000000001 288.30999999999995 974.6600000000001 288.30999999999995 C 947.46 288.30999999999995 938.5200000000001 271.00999999999993 947.8000000000001 236.40999999999994 C 952.4000000000001 219.20999999999995 959.36 206.27999999999994 968.6600000000001 197.56999999999994 C 977.96 188.82999999999993 989.2300000000001 184.46999999999994 1002.4800000000001 184.46999999999994 C 1015.4800000000001 184.46999999999994 1024.2600000000002 188.79999999999995 1028.7800000000002 197.51999999999995 C 1033.3000000000002 206.21999999999994 1033.2600000000002 219.18999999999994 1028.65 236.38999999999996 M 1059.0300000000002 155.55999999999995 C 1047.0800000000002 148.11999999999995 1031.8300000000002 144.39999999999995 1013.2300000000002 144.39999999999995 C 994.4000000000002 144.39999999999995 976.9700000000003 148.09999999999994 960.9300000000003 155.49999999999994 C 944.9566377525113 162.8537004912886 930.9182291015343 173.83105125593056 919.9300000000003 187.56 C 908.6300000000003 201.45999999999995 900.5000000000003 217.75999999999993 895.5100000000003 236.35999999999996 C 890.6100000000004 254.88999999999996 890.0100000000003 271.15999999999997 893.8100000000003 285.09 C 897.6100000000002 298.98999999999995 905.6100000000002 309.69 917.6100000000002 317.09 C 929.7100000000003 324.54999999999995 945.1100000000002 328.26 964.0100000000002 328.26 C 982.6100000000002 328.26 999.9100000000002 324.52 1015.8100000000002 317.08 C 1031.7100000000003 309.59999999999997 1045.3100000000002 298.97999999999996 1056.6100000000001 284.97999999999996 C 1067.91 271.03999999999996 1076.0100000000002 254.77999999999997 1081.0100000000002 236.17999999999995 C 1086.0100000000002 217.57999999999996 1086.6100000000001 201.33999999999995 1082.8100000000002 187.37999999999994 C 1079.0100000000002 173.47999999999993 1071.1100000000001 162.77999999999994 1059.2100000000003 155.32999999999993 M 1244.3100000000002 196.12999999999994 L 1257.6100000000001 148.02999999999994 C 1253.1100000000001 145.72999999999993 1247.21 144.52999999999994 1239.8100000000002 144.52999999999994 C 1227.91 144.52999999999994 1216.5100000000002 147.46999999999994 1205.5100000000002 153.42999999999995 C 1196.0500000000002 158.48999999999995 1188.0100000000002 165.62999999999994 1181.2100000000003 174.56999999999994 L 1188.1100000000004 148.66999999999993 L 1173.0400000000004 148.72999999999993 L 1136.0400000000004 148.72999999999993 L 1088.3400000000004 325.42999999999995 L 1140.9700000000005 325.42999999999995 L 1165.7200000000005 233.05999999999995 C 1169.3200000000004 219.62999999999994 1175.8000000000004 209.05999999999995 1185.1500000000005 201.55999999999995 C 1194.4500000000005 194.02999999999994 1206.0500000000006 190.25999999999993 1220.0500000000006 190.25999999999993 C 1228.6500000000005 190.25999999999993 1236.6500000000005 192.22999999999993 1244.2500000000007 196.15999999999994 M 1390.7500000000007 237.25999999999993 C 1386.2500000000007 253.75999999999993 1379.4500000000007 266.35999999999996 1370.1500000000008 275.05999999999995 C 1360.8500000000008 283.79999999999995 1349.6500000000008 288.15999999999997 1336.6500000000008 288.15999999999997 C 1323.6500000000008 288.15999999999997 1314.7500000000007 283.76 1310.0500000000009 274.96 C 1305.250000000001 266.10999999999996 1305.1500000000008 253.35999999999999 1309.6500000000008 236.59999999999997 C 1314.1500000000008 219.84999999999997 1321.0500000000009 206.99999999999997 1330.5500000000009 198.09999999999997 C 1340.0500000000009 189.12999999999997 1351.250000000001 184.64999999999998 1364.250000000001 184.64999999999998 C 1377.0500000000009 184.64999999999998 1385.650000000001 189.24999999999997 1390.250000000001 198.54999999999998 C 1394.8500000000008 207.85 1394.950000000001 220.74999999999997 1390.5300000000009 237.25 M 1427.3300000000008 155.85 C 1417.5800000000008 148.04999999999998 1405.1300000000008 144.15 1390.0300000000009 144.15 C 1376.8000000000009 144.15 1364.190000000001 147.15 1352.230000000001 153.21 C 1340.2800000000009 159.26000000000002 1330.5800000000008 167.51000000000002 1323.130000000001 177.95000000000002 L 1323.310000000001 176.75000000000003 L 1332.140000000001 148.65000000000003 L 1280.740000000001 148.65000000000003 L 1267.640000000001 197.55000000000004 L 1267.240000000001 199.25000000000003 L 1213.240000000001 400.69000000000005 L 1265.940000000001 400.69000000000005 L 1293.140000000001 299.2900000000001 C 1295.840000000001 308.31000000000006 1301.340000000001 315.3900000000001 1309.740000000001 320.5100000000001 C 1318.140000000001 325.6100000000001 1328.510000000001 328.1400000000001 1340.8400000000008 328.1400000000001 C 1356.1400000000008 328.1400000000001 1370.740000000001 324.4400000000001 1384.5900000000008 317.0400000000001 C 1398.490000000001 309.62000000000006 1410.490000000001 298.94000000000005 1420.6900000000007 285.1400000000001 C 1430.8900000000008 271.3400000000001 1438.4600000000007 255.3400000000001 1443.2900000000006 237.2400000000001 C 1448.1900000000007 219.1100000000001 1449.1900000000007 202.9400000000001 1446.3900000000006 188.79000000000008 C 1443.5400000000006 174.6200000000001 1437.2300000000005 163.6500000000001 1427.4900000000005 155.89000000000007 M 1602.1400000000006 236.54000000000008 C 1597.6400000000006 253.24000000000007 1590.7400000000005 266.0400000000001 1581.4400000000005 274.8400000000001 C 1572.1400000000006 283.7000000000001 1560.9400000000005 288.11000000000007 1547.9400000000005 288.11000000000007 C 1534.6400000000006 288.11000000000007 1525.6400000000006 283.81000000000006 1520.9400000000005 275.11000000000007 C 1516.1400000000006 266.4100000000001 1516.0400000000004 253.81000000000006 1520.4400000000005 237.31000000000006 C 1524.8400000000006 220.81000000000006 1531.8600000000006 207.91000000000005 1541.5600000000004 198.61000000000007 C 1551.2600000000004 189.31000000000006 1562.6100000000004 184.67000000000007 1575.6300000000003 184.67000000000007 C 1588.6300000000003 184.67000000000007 1597.4300000000003 189.17000000000007 1602.0300000000004 198.07000000000008 C 1606.6300000000003 207.00000000000009 1606.6600000000005 219.83000000000007 1602.1800000000005 236.57000000000008 z M 1625.6400000000006 148.69000000000008 L 1618.9100000000005 173.79000000000008 C 1616.0100000000004 164.74000000000007 1610.4100000000005 157.54000000000008 1602.1100000000006 152.19000000000008 C 1593.7100000000005 146.85000000000008 1583.4100000000005 144.19000000000008 1571.1100000000006 144.19000000000008 C 1556.0100000000007 144.19000000000008 1541.4300000000005 148.0900000000001 1527.5100000000007 155.89000000000007 C 1513.6100000000006 163.69000000000008 1501.4100000000008 174.63000000000008 1491.0100000000007 188.79000000000008 C 1480.6100000000006 202.95000000000007 1473.0100000000007 219.0900000000001 1468.1100000000006 237.19000000000008 C 1463.2600000000007 255.36000000000007 1462.3100000000006 271.2900000000001 1465.2100000000005 285.1500000000001 C 1468.1400000000006 298.9500000000001 1474.4500000000005 309.61000000000007 1484.2100000000005 317.05000000000007 C 1493.9500000000005 324.45000000000005 1506.5100000000004 328.19000000000005 1521.8100000000004 328.19000000000005 C 1534.1100000000004 328.19000000000005 1545.8600000000004 325.63000000000005 1557.0100000000004 320.49000000000007 C 1567.8815858429573 315.5522335351898 1577.5485415253445 308.30798824267015 1585.3400000000004 299.26 L 1578.3400000000004 325.44000000000005 L 1630.2400000000005 325.44000000000005 L 1677.6200000000006 148.74000000000007 L 1625.7200000000005 148.74000000000007 z M 1895.5100000000007 148.75000000000009 L 1895.5400000000006 148.70000000000007 L 1863.6400000000006 148.70000000000007 C 1862.6200000000006 148.70000000000007 1861.7200000000005 148.75000000000009 1860.7900000000006 148.77000000000007 L 1844.2400000000007 148.77000000000007 L 1835.7400000000007 160.57000000000008 L 1833.6400000000008 163.3700000000001 L 1832.7400000000007 164.7700000000001 L 1765.4900000000007 258.4500000000001 L 1751.5900000000006 148.7500000000001 L 1696.5100000000007 148.7500000000001 L 1724.4100000000008 315.4500000000001 L 1662.8100000000009 400.7500000000001 L 1717.710000000001 400.7500000000001 L 1732.610000000001 379.6200000000001 C 1733.030000000001 379.0000000000001 1733.410000000001 378.48000000000013 1733.910000000001 377.8200000000001 L 1751.310000000001 353.1200000000001 L 1751.810000000001 352.42000000000013 L 1829.7400000000011 241.92000000000013 L 1895.4400000000012 148.92000000000013 L 1895.540000000001 148.86000000000013 L 1895.5100000000011 148.86000000000013 z" stroke-linecap="round" />
</g>
</g>
</g>
</svg>